<svg class="figure" viewBox="-228 -56 712 800" xmlns="http://www.w3.org/2000/svg" role="img" aria-label="Construction drawing of the Silo mark: every slanted edge sits at 30 degrees, the play triangle is equilateral, and each bar counter is concentric with its bar."><style>.cons{stroke:#93aae8;stroke-width:1.5;fill:none;stroke-dasharray:7 6;opacity:.9}.art{fill:none;stroke:#ecf1ff;stroke-width:3.4}.dim line{stroke:#93aae8;stroke-width:1.5}.dim text,.lab{fill:#ecf1ff;font:500 22px ui-monospace,monospace;letter-spacing:.05em}.dimmed{opacity:.6}</style><defs><pattern id="bpg" width="44" height="44" patternUnits="userSpaceOnUse"><path d="M44 0H0V44" fill="none" stroke="rgba(173,197,255,.15)" stroke-width="1"/></pattern></defs><rect x="-228" y="-56" width="712" height="800" fill="#142c75"/><rect x="-228" y="-56" width="712" height="800" fill="url(#bpg)"/><g class="cons" stroke="#93aae8" stroke-width="1.5" fill="none" stroke-dasharray="7 6" opacity="0.9"><line x1="0" y1="-40" x2="0" y2="756"/><line x1="266.0" y1="-40" x2="266.0" y2="756"/><line x1="266.0" y1="204.6" x2="402.0" y2="204.6"/><line x1="266.0" y1="204.6" x2="368.2" y2="145.6"/><line x1="0" y1="318.3" x2="306.0" y2="318.3"/><line x1="0" y1="358.2" x2="306.0" y2="358.2"/><line x1="133.0" y1="357.2" x2="278.0" y2="357.2"/></g><path class="cons" stroke="#93aae8" stroke-width="1.5" fill="none" stroke-dasharray="7 6" opacity="0.9" d="M344.0,204.6 A78,78 0 0 0 333.5,165.6"/><path class="art" fill="none" stroke="#ecf1ff" stroke-width="3.4" d="M0.000,565.188 A27.000,27.000 0 0 1 13.500,541.806 L225.500,419.408 A27.000,27.000 0 0 1 266.000,442.790 L266.000,531.936 A27.000,27.000 0 0 1 252.500,555.319 L40.500,677.717 A27.000,27.000 0 0 1 0.000,654.335 Z" opacity="0.28" stroke-dasharray="10 8"/><path class="art" fill="none" stroke="#ecf1ff" stroke-width="3.4" d="M0.000,41.569 A24.000,24.000 0 0 1 36.000,20.785 L239.656,138.365 A24.000,24.000 0 0 1 239.656,179.935 L36.000,297.515 A24.000,24.000 0 0 1 0.000,276.731 Z"/><path class="art" fill="none" stroke="#ecf1ff" stroke-width="3.4" d="M0.000,373.788 A27.000,27.000 0 0 1 13.500,350.406 L225.500,228.008 A27.000,27.000 0 0 1 266.000,251.390 L266.000,340.536 A27.000,27.000 0 0 1 252.500,363.919 L40.500,486.317 A27.000,27.000 0 0 1 0.000,462.935 Z"/><path class="art" fill="none" stroke="#ecf1ff" stroke-width="3.4" d="M81.000,366.535 A11.000,11.000 0 0 1 86.500,357.009 L168.500,309.666 A11.000,11.000 0 0 1 185.000,319.193 L185.000,347.789 A11.000,11.000 0 0 1 179.500,357.316 L97.500,404.658 A11.000,11.000 0 0 1 81.000,395.132 Z"/><g class="cons" stroke="#93aae8" stroke-width="1.5" fill="none" stroke-dasharray="7 6" opacity="0.9"><line x1="118.0" y1="357.2" x2="148.0" y2="357.2"/><line x1="133.0" y1="342.2" x2="133.0" y2="372.2"/></g><g class="dim" stroke="#93aae8" stroke-width="1.5"><line x1="-58" y1="358.2" x2="-58" y2="509.7"/><line x1="-65.0" y1="358.2" x2="-51.0" y2="358.2"/><line x1="-65.0" y1="509.7" x2="-51.0" y2="509.7"/><text fill="#ecf1ff" font-family="ui-monospace, SFMono-Regular, Menlo, monospace" font-size="22" font-weight="500" letter-spacing="1.1" x="-70" y="441.9" text-anchor="end">151.5</text></g><g class="dim" stroke="#93aae8" stroke-width="1.5"><line x1="-58" y1="318.3" x2="-58" y2="358.2"/><line x1="-65.0" y1="318.3" x2="-51.0" y2="318.3"/><line x1="-65.0" y1="358.2" x2="-51.0" y2="358.2"/><text fill="#ecf1ff" font-family="ui-monospace, SFMono-Regular, Menlo, monospace" font-size="22" font-weight="500" letter-spacing="1.1" x="-70" y="346.2" text-anchor="end">39.9</text></g><g class="dim" stroke="#93aae8" stroke-width="1.5"><line x1="-124" y1="0.0" x2="-124" y2="318.3"/><line x1="-131.0" y1="0.0" x2="-117.0" y2="0.0"/><line x1="-131.0" y1="318.3" x2="-117.0" y2="318.3"/><text fill="#ecf1ff" font-family="ui-monospace, SFMono-Regular, Menlo, monospace" font-size="22" font-weight="500" letter-spacing="1.1" x="-136" y="167.2" text-anchor="end">318.3</text></g><g class="dim" stroke="#93aae8" stroke-width="1.5"><line x1="0" y1="724" x2="266.0" y2="724"/><line x1="0.0" y1="717.0" x2="0.0" y2="731.0"/><line x1="266.0" y1="717.0" x2="266.0" y2="731.0"/><text fill="#ecf1ff" font-family="ui-monospace, SFMono-Regular, Menlo, monospace" font-size="22" font-weight="500" letter-spacing="1.1" x="133.0" y="708" text-anchor="middle">266</text></g><text class="lab" fill="#ecf1ff" font-family="ui-monospace, SFMono-Regular, Menlo, monospace" font-size="22" font-weight="500" letter-spacing="1.1" x="362.0" y="190.6">30°</text><text class="lab" fill="#ecf1ff" font-family="ui-monospace, SFMono-Regular, Menlo, monospace" font-size="22" font-weight="500" letter-spacing="1.1" x="46" y="167.2">equilateral</text><text class="lab" fill="#ecf1ff" font-family="ui-monospace, SFMono-Regular, Menlo, monospace" font-size="22" font-weight="500" letter-spacing="1.1" x="288.0" y="365.2">concentric</text><text class="lab dimmed" fill="#ecf1ff" font-family="ui-monospace, SFMono-Regular, Menlo, monospace" font-size="22" font-weight="500" letter-spacing="1.1" opacity="0.6" x="288.0" y="675.1">repeat ×3</text></svg>